<svg id="bubbles" xmlns="http://www.w3.org/2000/svg" xmlns:xlink="http://www.w3.org/1999/xlink" width="116.926" height="116.91" viewBox="0 0 116.926 116.91">
  <defs>
    <clipPath id="clip-path">
      <rect id="Rectangle_84" data-name="Rectangle 84" width="116.926" height="116.91" fill="#00a5ed"/>
    </clipPath>
  </defs>
  <g id="Group_67" data-name="Group 67" clip-path="url(#clip-path)">
    <path id="Path_88" data-name="Path 88" d="M29.118,234.53a29.227,29.227,0,1,1,29.343-28.745A29.308,29.308,0,0,1,29.118,234.53m1.137-5.361A23.863,23.863,0,0,0,52.8,209.249c.3-1.72-.483-3.02-1.977-3.282-1.59-.279-2.777.661-3.1,2.429a18.7,18.7,0,0,1-18.352,15.5,2.641,2.641,0,1,0,.007,5.273c.29.007.58,0,.87,0" transform="translate(0 -117.622)" fill="#fff"/>
    <path id="Path_89" data-name="Path 89" d="M258.734,165.212a18.575,18.575,0,1,1,18.577-18.627,18.579,18.579,0,0,1-18.577,18.627m.558-34.451a2.7,2.7,0,0,0-2.866,1.276c-1.1,1.849.207,3.878,2.56,4a10.552,10.552,0,0,1,10.026,8.171c.221.92.24,1.887.376,2.829a2.539,2.539,0,0,0,2.192,2.211,2.276,2.276,0,0,0,2.735-1.607,9.118,9.118,0,0,0,.257-3.424c-.978-7.185-7.839-13.235-15.28-13.456" transform="translate(-160.385 -85.547)" fill="#fff"/>
    <path id="Path_90" data-name="Path 90" d="M162.691,13.422A13.254,13.254,0,1,1,149.406,0a13.25,13.25,0,0,1,13.285,13.422m-23.9-.762c.006,1.906.9,3.13,2.38,3.244a2.649,2.649,0,0,0,2.952-2.521c.521-3.663,1.826-4.939,5.577-5.45a2.643,2.643,0,0,0,2.384-2.707,2.676,2.676,0,0,0-2.574-2.549c-5.215-.362-10.736,4.78-10.719,9.983" transform="translate(-90.972 0)" fill="#fff"/>
    <path id="Path_91" data-name="Path 91" d="M39.954,72.088a7.956,7.956,0,0,1-7.985,7.966,8.044,8.044,0,0,1-7.935-7.931,7.96,7.96,0,1,1,15.919-.035" transform="translate(-16.055 -42.842)" fill="#fff"/>
    <path id="Path_92" data-name="Path 92" d="M82.9,289.213a2.641,2.641,0,1,1-.007-5.273,18.7,18.7,0,0,0,18.352-15.5c.318-1.768,1.506-2.708,3.1-2.429,1.494.262,2.277,1.562,1.977,3.282a23.863,23.863,0,0,1-22.547,19.921" transform="translate(-53.513 -177.667)" fill="none"/>
    <path id="Path_93" data-name="Path 93" d="M291.368,136.131c7.441.221,14.3,6.272,15.28,13.456a9.119,9.119,0,0,1-.257,3.424,2.276,2.276,0,0,1-2.735,1.607,2.539,2.539,0,0,1-2.192-2.211c-.136-.942-.155-1.909-.376-2.83a10.552,10.552,0,0,0-10.026-8.171c-2.353-.121-3.657-2.15-2.56-4a2.7,2.7,0,0,1,2.866-1.276" transform="translate(-192.46 -90.917)" fill="none"/>
    <path id="Path_94" data-name="Path 94" d="M144.052,18.012c-.017-5.2,5.5-10.344,10.719-9.983a2.676,2.676,0,0,1,2.574,2.549,2.643,2.643,0,0,1-2.384,2.707c-3.751.511-5.056,1.787-5.577,5.45a2.649,2.649,0,0,1-2.952,2.521c-1.476-.114-2.374-1.338-2.38-3.244" transform="translate(-96.228 -5.352)" fill="none"/>
  </g>
</svg>
