<svg xmlns="http://www.w3.org/2000/svg" xmlns:xlink="http://www.w3.org/1999/xlink" width="111.831" height="112.042" viewBox="0 0 111.831 112.042"><defs><clipPath id="a"><rect width="111.831" height="112.042" transform="translate(0 0)" fill="#fff"/></clipPath></defs><g clip-path="url(#a)"><path d="M99.891,64.16a16.686,16.686,0,0,1,.737,11.1,16.319,16.319,0,0,1-8.552,10.4,1.816,1.816,0,0,0-1.136,1.427,16.569,16.569,0,0,1-16.978,13.78,1.4,1.4,0,0,0-1.081.6,16.6,16.6,0,0,1-24.622,6.342,2.315,2.315,0,0,0-.291-.133c-.218.165-.479.35-.726.554a16.485,16.485,0,0,1-20.97.1,1.717,1.717,0,0,0-1.794-.336A16.549,16.549,0,0,1,3.436,91.776c.024-1.5.471-2.99.645-4.494a2.031,2.031,0,0,0-.276-1.365,16.585,16.585,0,0,1,.124-21.289.949.949,0,0,0,.056-1.34,16.541,16.541,0,0,1,6.44-24.148,1.173,1.173,0,0,0,.788-1.243A16.618,16.618,0,0,1,25.059,20.843a1.7,1.7,0,0,0,1.072-.711c4.3-8.192,12.511-11.45,21.176-8.367.131.047.267.084.476.149a26.1,26.1,0,0,1,.868-3.11c1.029-2.489,2.132-4.949,3.261-7.395A2.267,2.267,0,0,1,54.445.031,2.324,2.324,0,0,1,56.471,2.2a28,28,0,0,0,3.273,9.152A21.805,21.805,0,0,0,61.359,13.6a4.011,4.011,0,0,0,4.308,1.639,26.84,26.84,0,0,1,10.353.513c1.95.4,2.51,2.618,1.109,4.171A39.041,39.041,0,0,0,70.787,29.4,18.627,18.627,0,0,0,68.725,39.73c.422-.367.744-.619,1.032-.9A101.54,101.54,0,0,1,84.692,26.265a28.889,28.889,0,0,1,9.88-4.632,11.713,11.713,0,0,1,3.829-.117,2.272,2.272,0,0,1,1.97,2.832,2.512,2.512,0,0,1-2.886,1.818,8.172,8.172,0,0,0-3,.394,36.546,36.546,0,0,0-11.653,6.953c-3.273,2.714-6.364,5.65-9.531,8.493a6.9,6.9,0,0,0-.528.639c5.586-.82,10.93-1.776,15.691-4.6A13.164,13.164,0,0,0,91.729,35a2.425,2.425,0,0,1,4.236.479,18.9,18.9,0,0,1,1.643,9.745,9.408,9.408,0,0,1-.424,2.622,1.941,1.941,0,0,0,.772,2.451,25.448,25.448,0,0,0,7.078,4.905,4.966,4.966,0,0,0,3.749.369,2.287,2.287,0,0,1,2.844,1.32,2.385,2.385,0,0,1-1.057,3.062,32.535,32.535,0,0,1-9.922,4.012c-.211.048-.419.109-.757.2m-31.6,8.456c.335-.038,1-.1,1.654-.193a11.822,11.822,0,0,0,9.778-10.835,1.614,1.614,0,0,0-.421-1.225A42.751,42.751,0,0,1,68.2,49.449a1.479,1.479,0,0,0-1.084-.525,11.864,11.864,0,0,0,1.171,23.692M44.416,83.844a16.892,16.892,0,0,1-2.645-13.661,16.775,16.775,0,0,1-13.618-2.63A11.807,11.807,0,1,0,44.416,83.844M63.73,44.588c-.468-.34-.792-.58-1.119-.815A39.482,39.482,0,0,1,52.034,33.145a1.951,1.951,0,0,0-2.187-.968A11.866,11.866,0,0,0,51.16,55.828a1.152,1.152,0,0,0,1.276-.881,16.25,16.25,0,0,1,8.58-9.276c.824-.389,1.694-.679,2.714-1.083M49.018,27.434a27.928,27.928,0,0,1-1.756-9.922,1.106,1.106,0,0,0-.54-.787,12.1,12.1,0,0,0-7.3-1.268A11.877,11.877,0,0,0,34.8,37.206c.73.445,1.09.389,1.5-.456a16.312,16.312,0,0,1,10.256-8.722c.77-.237,1.569-.382,2.46-.594M84.352,63.29a1.262,1.262,0,0,0-.088.293,16.35,16.35,0,0,1-9.318,12.192c-.834.408-.586.85-.251,1.4A11.863,11.863,0,0,0,95.066,65.034L84.352,63.29m-32.749.9a11.825,11.825,0,0,0,7.215,21.8c4.808-.271,9.6-4.246,10.364-8.578C60.09,77.353,54.267,72.941,51.6,64.19M34.627,42.7c-5.066,1.115-8.757,6.2-8.623,11.8a11.916,11.916,0,0,0,9.757,11.234c5,.85,10.079-1.706,11.941-5.471A16.842,16.842,0,0,1,34.627,42.7M48.123,87.6A11.851,11.851,0,1,0,68.465,99.669a17.107,17.107,0,0,1-8.89-8.445,1.324,1.324,0,0,0-.95-.467c-1.135-.114-2.29-.072-3.418-.228A16.393,16.393,0,0,1,48.123,87.6M24.341,63.872a4.38,4.38,0,0,0-.226-.479,16.907,16.907,0,0,1-2.876-10.185,1.417,1.417,0,0,0-.725-1,16.824,16.824,0,0,1-6.869-6.276c-.476-.776-.872-1.6-1.341-2.47-4.131,2.372-6.418,5.878-6.388,10.593a11.256,11.256,0,0,0,6.823,10.693,11.477,11.477,0,0,0,11.6-.88M41.292,92.691a16.887,16.887,0,0,1-15.757-1.124,11.853,11.853,0,0,0,5.682,14.4c5.284,2.765,11.218.742,13.263-1.84-2.6-4.323-2.82-5.117-3.188-11.432M7.911,67.436c-3.232,2.958-4.729,9.737-.78,14.99,3.115,4.144,9.845,6.153,13.259,3.915a16.963,16.963,0,0,1-1.048-15.736A17.056,17.056,0,0,1,7.911,67.436M72.656,82.258a46.088,46.088,0,0,1-3.766,4.259,45.312,45.312,0,0,1-4.62,3.248c1.5,3.982,6.837,6.812,11.925,6.224,4.59-.531,9.206-4.586,9.7-8.6a16.564,16.564,0,0,1-13.242-5.126M24.626,25.98c-3.94.456-8,5.056-8.578,9.609-.645,5.12,2.147,10.469,6.4,12.146A17.131,17.131,0,0,1,29.9,39.414,16.739,16.739,0,0,1,24.626,25.98M72.658,47.469c3.2,4.253,6.74,7.762,11.346,10.056a1.225,1.225,0,0,0,1.07-.082,20.2,20.2,0,0,0,6.748-8.231,14.558,14.558,0,0,0,.9-8.125c-6.042,4.161-12.909,5.354-20.063,6.382M8.365,89.733c-.629,4.334.432,7.945,3.477,10.867a11.686,11.686,0,0,0,10.424,3.073A17.386,17.386,0,0,1,20.54,91.459,17.133,17.133,0,0,1,8.365,89.733m62.652-69.9a18.109,18.109,0,0,0-8.129.84,6.852,6.852,0,0,0-3.952,3.532c-1.434,3.014-1.162,6.195-.405,9.242.3,1.189,1.708,2.12,2.666,3.117a20.517,20.517,0,0,0,1.849,1.589,7.271,7.271,0,0,0,.78.474c0-7.218,3.189-13.075,7.191-18.794M53.334,9.6a24.075,24.075,0,0,0,.147,16.191c.708-3.551,2.258-6.274,4.786-8.012L53.334,9.6M101.3,58.886l-6.462-4.848L90.193,59.59a24.043,24.043,0,0,0,11.107-.7" fill="#fff"/></g></svg>