<svg xmlns="http://www.w3.org/2000/svg" xmlns:xlink="http://www.w3.org/1999/xlink" width="151.021" height="77.458" viewBox="0 0 151.021 77.458"><defs><clipPath id="a"><rect width="151.021" height="77.458" fill="#fff"/></clipPath></defs><g clip-path="url(#a)"><path d="M87.414.2C81.049-.981,74.326,3.331,70.473,7.323a23.856,23.856,0,0,0-6.535,16.712c-.005,1.562,0,3.124,0,5.1-3.415-2.877-6.489-5.464-9.559-8.055C46.794,14.679,39.227,8.256,31.6,1.9A6.192,6.192,0,0,0,28.545.4c-7.36-.743-14.333.255-20.174,5.3A22.788,22.788,0,0,0,.119,23.447Q.108,24.641.073,25.835c0,.01-.006.02-.007.03Q.033,31.6,0,37.346C.052,38.379.108,39.04.108,39.7.115,49.919.195,60.142.066,70.362c-.043,3.4,1.044,5.8,4.251,7.1H28.952c3.226-1.265,4.363-3.678,4.294-7.063-.131-6.477-.038-12.959-.038-19.439V48.57c2.6,2.189,4.832,4.056,7.053,5.93Q52.594,64.905,64.938,75.3a30.839,30.839,0,0,0,3.355,2.162H92.928c3.156-1.365,4.278-3.776,4.147-7.168-.184-4.765-.047-9.541-.047-14.362,3.217,1.066,6.281,2.28,9.447,3.093,9.847,2.53,19.861,2.716,29.919,1.7,2.92-.3,5.81-.872,8.728-1.2a6.487,6.487,0,0,0,5.9-4.492V52.456a9.141,9.141,0,0,0-4.276-4.3c-15.055-8.439-28.871-18.5-40.41-31.446-.488-.548-2.9-4.052-6.685-8.29-.827-.926-1.5-1.648-1.851-2.019a17.814,17.814,0,0,0-4.167-3.712A19.882,19.882,0,0,0,87.414.2M22.079,66.32H11.266c-.04-.587-.115-1.17-.115-1.754q-.01-20.2,0-40.41c.016-6.988,4.236-11.957,10.924-12.732Zm41.855-6.356c-.743-.588-1.243-.963-1.72-1.365q-13.9-11.727-27.78-23.476c-.515-.437-1.153-1.121-1.163-1.7-.091-5.075-.053-10.153-.053-15.758,4.02,3.389,7.658,6.449,11.289,9.516Q53.7,34.944,62.865,42.738a2.8,2.8,0,0,1,1.023,1.754c.081,5.017.047,10.035.047,15.473m21.985,6.358H75.108a13.316,13.316,0,0,1-.134-1.37c-.007-13.721-.035-27.443.007-41.164a12.05,12.05,0,0,1,10.938-12.38Zm11.11-41.035V23.525A177.076,177.076,0,0,0,128.26,49.859l-.113.479c-3.255-.148-6.52-.184-9.764-.465-6.888-.6-13.527-2.089-19.5-5.813a3.379,3.379,0,0,1-1.9-3.341c.146-5.14.053-10.287.053-15.432" transform="translate(0 0)" fill="#fff"/></g></svg>