<svg xmlns="http://www.w3.org/2000/svg" xmlns:xlink="http://www.w3.org/1999/xlink" width="99.619" height="99.616" viewBox="0 0 99.619 99.616"><defs><clipPath id="a"><rect width="99.619" height="99.616" transform="translate(0 0)" fill="#fff"/></clipPath></defs><g transform="translate(0 -0.001)"><g transform="translate(0 0.001)" clip-path="url(#a)"><path d="M81.873,135.386c-1.792-.244-3.593-.435-5.374-.741a49.032,49.032,0,0,1-26.255-13.378c-.839-.809-1.676-1.619-2.679-2.589l70.579-70.34a1.678,1.678,0,0,1,.288.182,50.087,50.087,0,0,1,15.727,28.913c.275,1.657.441,3.333.658,5v6.23c-.055.251-.126.5-.163.752-.338,2.306-.553,4.637-1.024,6.916-4,19.325-20.514,35.132-39.961,38.286-1.848.3-3.711.514-5.567.768Zm31.966-74.311c13.108,15.438,10.719,37.073-.62,49.554A36.97,36.97,0,0,1,92.606,122.5c-11.99,2.357-22.718-.559-32.077-8.109L56.218,118.7c14.947,13.823,42.118,15.858,60-2.2,17.96-18.139,15.46-45.182,1.916-59.724l-4.293,4.3m-8.721,49.247L87.971,93.171v24.15a31.691,31.691,0,0,0,17.148-7M116.758,82.6a31.641,31.641,0,0,0-7.026-17.211L92.526,82.6ZM64.726,110.215a31.687,31.687,0,0,0,17.287,7.1V92.941L64.726,110.215m52.026-21.677H92.373l17.269,17.289a31.828,31.828,0,0,0,7.11-17.289" transform="translate(-35.197 -35.77)" fill="#fff"/><path d="M0,17.247V11.463A11.65,11.65,0,0,0,8.046,8.076,11.57,11.57,0,0,0,11.466,0h5.783a11.632,11.632,0,0,0,3.388,8.028,11.634,11.634,0,0,0,8.072,3.426v5.777A11.636,11.636,0,0,0,17.257,28.694H11.48a11.667,11.667,0,0,0-3.387-8.029A11.533,11.533,0,0,0,0,17.247m14.387-6.772-4.235,4.242c.438.384,1.279,1.047,2.03,1.8.769.771,1.449,1.631,1.812,2.046l4.216-4.226-3.824-3.862" transform="translate(0 -0.001)" fill="#fff"/><rect width="5.72" height="5.72" transform="translate(37.401 7.188)" fill="#fff"/><rect width="5.753" height="5.704" transform="translate(59.573 11.504)" fill="#fff"/><rect width="5.751" height="5.7" transform="translate(30.962 28.832)" fill="#fff"/><rect width="5.671" height="5.739" transform="translate(15.272 40.87)" fill="#fff"/></g></g></svg>