<svg xmlns="http://www.w3.org/2000/svg" xmlns:xlink="http://www.w3.org/1999/xlink" width="108.315" height="136.621" viewBox="0 0 108.315 136.621">
  <defs>
    <clipPath id="clip-path">
      <rect id="Rectangle_90" data-name="Rectangle 90" width="108.315" height="136.621" fill="#fff"/>
    </clipPath>
  </defs>
  <g id="midnght-grapes" transform="translate(-423 -213.613)">
    <g id="Group_71" data-name="Group 71" transform="translate(423 213.613)" clip-path="url(#clip-path)">
      <path id="Path_96" data-name="Path 96" d="M33.056,0A41.7,41.7,0,0,1,43.763,7.367a38.288,38.288,0,0,1,9.929,15.9c.132.408.3.8.373.992a89.921,89.921,0,0,1,6.249-6.81c5.358-4.8,11.836-7.29,18.9-8.318a4.019,4.019,0,0,1,4.614,3.449,4.108,4.108,0,0,1-3.739,4.511c-6.387.972-12.062,3.4-16.453,8.295a21.143,21.143,0,0,0-5.172,11.825,24.218,24.218,0,0,1,11.025,5.279,24.3,24.3,0,0,1,10.886-5.234c13.462-2.715,26.757,7.238,27.856,20.893a23.336,23.336,0,0,1-13.6,23.467c-.724.345-.956.658-.783,1.489a23.362,23.362,0,0,1-15.162,27.13c-.894.317-1.074.727-1.036,1.628a23.5,23.5,0,1,1-46.954.373,1.809,1.809,0,0,0-1.447-2.145A23.4,23.4,0,0,1,14.47,83.2c.215-.984-.068-1.285-.888-1.658a23.433,23.433,0,0,1,6.049-44.393,23.15,23.15,0,0,1,18.143,4.482l1.072.8,3.136-2.248c-1.852-1.641-3.828-3.17-5.544-4.95C27.923,26.4,25.292,15.916,27.811,4.014A5.346,5.346,0,0,1,30.917,0ZM54.263,75.775A15.471,15.471,0,1,0,38.677,60.419,15.559,15.559,0,0,0,54.263,75.775M33.672,48.729c-5.893-5.565-15.688-5.066-21.418.986A15.367,15.367,0,0,0,13,71.618c6.643,6.169,16.114,4.785,20.658.214a23.6,23.6,0,0,1,.019-23.1m41.038.013c.076.2.111.33.17.447a23.043,23.043,0,0,1,.153,21.88c-.37.742-.185,1.092.4,1.526A15.474,15.474,0,1,0,93.634,47.579c-5.791-4.025-14.285-3.527-18.924,1.163M69.538,78.168a3.283,3.283,0,0,0-.412.234A22.865,22.865,0,0,1,56.9,83.568c-.8.082-.983.549-1.133,1.213-2.237,9.895,5.5,19.047,15.87,18.769A15.521,15.521,0,0,0,86.082,84.928c-.217-.95-.6-1.128-1.505-1.184a37.471,37.471,0,0,1-5.409-.7,22.561,22.561,0,0,1-9.628-4.879M22.65,83.862a2.586,2.586,0,0,0-.226.456,15.526,15.526,0,0,0,7.7,17.428c6.224,3.345,14.34,1.968,18.765-3.239a1.942,1.942,0,0,0,.226-1.5c-.4-1.677-1.2-3.305-1.324-4.991-.222-2.982-.062-5.992-.062-8.757L38.6,78.375c-6.193,4.264-7.439,4.7-15.949,5.487m16.193,27.71c-.855,5.537,2.156,11.624,7.2,14.747a15.374,15.374,0,0,0,17.109-.595c4.75-3.483,6.8-8.229,6.476-14.139a24.37,24.37,0,0,1-15.429-6.929,23.792,23.792,0,0,1-15.351,6.916M47.6,33.891c-.786-9.712-4.812-17.458-12.5-23.382C33.556,18.221,39.934,30.2,47.6,33.891" transform="translate(0)" fill="#fff"/>
    </g>
  </g>
</svg>
