<?xml version="1.0" encoding="UTF-8"?>
<svg id="Layer_2" data-name="Layer 2" xmlns="http://www.w3.org/2000/svg" viewBox="0 0 67.62 67.62">
  <g id="Layer_1-2" data-name="Layer 1">
    <path d="M48.96,0h-30.3C8.37,0,0,8.37,0,18.66v30.3c0,10.29,8.37,18.66,18.66,18.66h30.3c10.29,0,18.66-8.37,18.66-18.66v-30.3c0-10.29-8.37-18.66-18.66-18.66ZM61.62,48.96c0,6.98-5.68,12.66-12.66,12.66h-30.3c-6.98,0-12.66-5.68-12.66-12.66v-30.3c0-6.98,5.68-12.66,12.66-12.66h30.3c6.98,0,12.66,5.68,12.66,12.66v30.3h0Z" style="fill: #fff; stroke-width: 0px;"/>
    <path d="M33.81,16.39c-9.61,0-17.42,7.82-17.42,17.42s7.82,17.42,17.42,17.42,17.42-7.82,17.42-17.42-7.82-17.42-17.42-17.42ZM33.81,45.23c-6.3,0-11.42-5.12-11.42-11.42s5.12-11.42,11.42-11.42,11.42,5.12,11.42,11.42c0,6.3-5.13,11.42-11.42,11.42Z" style="fill: #fff; stroke-width: 0px;"/>
    <path d="M51.96,11.3c-1.16,0-2.29.47-3.11,1.29-.82.82-1.29,1.95-1.29,3.11s.47,2.29,1.29,3.11c.82.82,1.95,1.29,3.11,1.29s2.29-.47,3.11-1.29c.82-.82,1.29-1.96,1.29-3.11s-.47-2.3-1.29-3.11c-.82-.82-1.95-1.29-3.11-1.29Z" style="fill: #fff; stroke-width: 0px;"/>
  </g>
</svg>