<svg xmlns="http://www.w3.org/2000/svg" width="330.616" height="232.84" viewBox="0 0 330.616 232.84"><g transform="translate(-359.14 501)"><g transform="translate(359.14 -501)"><path d="M327.725,67.879a.847.847,0,0,1,.238-.119h.059c2.1-.42,2.459-3.177,1.559-4.859a6.889,6.889,0,0,0-5.156-3.657,78.956,78.956,0,0,0-3.538-23.685l-.059-.178V35.2a34.167,34.167,0,0,0-.421-10.193c-1.92-9.9-8.273-19.188-18.287-22.127h.841L271.3,11.76l-.178.059h-.238c-6.714.178-23.447.781-29.924.96-1.38,0-3.538.238-4.977.361-.361.059-5.279.48-5.517.48l-.539-.3L221.292,9l.539.178L207.438,6.239c-26.2-.9-54.03,8.876-75.677,26.2l-.96.781-1.261-.238a87.879,87.879,0,0,0-55.588,8.337l1.559-2.34c-.9,13.612,3.236,26.386,11.034,37.42.48,1.38,2.217,5.7,2.7,6.956L87.98,84.621l-48.993,48.81-2.518-4.137c4.616-1.44,13.552-4.255,18.05-5.636-3.3,4.379-20.988,28.3-24.645,33.16l-.178.238-.238.178-11.692,9.356-1.38-3.958c3.117.059,9,.059,11.993.119l-3.359,3.6L15.786,176.3l-2.34,2.459c-2.756,2.7-4.8,4.735-7.254,7.135l-1.38-3.359,7.857.059,3.3.059c-7.135,10.732-9.114,23.086-3.3,34.961l-1.321-.841,41.794,2.34c40.176,2.281,85.211,4.5,125.447,6.116l-1.019,1.079c-.361-2.459-1.618-10.8-1.92-13.013l2.157,2.039a95.312,95.312,0,0,1,10.252,10.613l-.781-.42,40.176,3.177-1.678,2.1c-2.157-6.234-6.536-19.247-8.634-25.3l6.536,8.515a50.4,50.4,0,0,0,17.57,14.393l-.9-.238c18.228-.119,36.52-.178,54.748-.119a26.669,26.669,0,0,0,17.332-13.671l-.238.96a52.968,52.968,0,0,0-.658-11.093c1.678-2.7.238-5.818-2.939-6l-4.018-.119,2.039-3.419c4.918-8.337,4.735-19.009-2.518-25.906l3.839-1.321a24.252,24.252,0,0,1-9.594,16.432l-1.618,1.2c-.42-.48-12.231-13.972-13.013-14.873a98.408,98.408,0,0,1-9.233-39.216v-.48l.238-.42L287.786,107.4a64.638,64.638,0,0,1,22.127-18.89c1.979-.9,6.175-3.3,7.436-1.019.361,1.019-.059,1.618-.178,2.4a46.446,46.446,0,0,0-1.2,5.755s0,.059-.06-.178c0-.059-.059-.119-.119-.178a1.207,1.207,0,0,0-.361-.238H315.2a12.781,12.781,0,0,0,3.236-1.92,23.443,23.443,0,0,0,8.214-10.915c1.261-4.137,1.261-8.575,1.138-12.834v-.6a1.212,1.212,0,0,1-.059-.9h0Zm.42.361a1.1,1.1,0,0,1,.119.42l.059.6a65.177,65.177,0,0,1,.119,8.4c-.238,6.655-4.018,12.592-9.054,16.669a13.328,13.328,0,0,1-3.839,2.4c-.059,0-.238.059-.361.059,0,0-.178,0-.238-.059a.813.813,0,0,1-.48-.3,1.535,1.535,0,0,1-.238-.96,67.613,67.613,0,0,1,1.321-7.075c0-.119,0-.238.059,0,.119.238.3.238.238.238-1.618.119-3.236,1.079-4.859,1.86A64.509,64.509,0,0,0,290.3,109.015c.6-.841-12.652,23.027-12.473,22.849l.238-.9a97.192,97.192,0,0,0,2.82,19.009,106.1,106.1,0,0,0,6.358,18.109l-.361-.48,11.875,13.25-2.939-.3a20.072,20.072,0,0,0,7.674-13.611l.539-4.438,3.236,3.117a24.887,24.887,0,0,1,5.037,6.9c3.839,7.8,2.637,17.209-1.618,24.586l-1.979-3.538a8.4,8.4,0,0,1,7.5,12.053l.178-1.38a55.87,55.87,0,0,1,.6,11.874l-.238.48A31.311,31.311,0,0,1,295.4,232.84q-27.527-.178-54.99-.6h-.48l-.42-.238a53.783,53.783,0,0,1-10.252-6.9,56.886,56.886,0,0,1-8.4-9l3.117-1.618,4.859,15.289.718,2.34-2.4-.238-40.117-4.018-.48-.059-.3-.361a96.236,96.236,0,0,0-9.836-10.554l1.678-.9,1.38,10.074.178,1.138-1.138-.06c-54.327-2.939-113.7-5.4-168.141-7.377a36.8,36.8,0,0,1,.718-36.218l1.618,2.82h-7.9l-4.676.059c1.86-1.86,6.116-6.3,8.035-8.214,2.939-2.82,10.732-11.751,13.671-14.932l1.618,3.657c-2.879,0-10.375.119-13.314.119,2.879-2.4,13.374-10.915,16.491-13.493l-.42.42,19.85-27.223,2.756,3.839c-4.918,1.618-15.531,4.977-20.509,6.6C30.9,134.739,79.889,84.85,84.2,80.65l-.6,2.939-2.039-5.215.361.6A61.922,61.922,0,0,1,70.177,36.936l1.44-.718A91.957,91.957,0,0,1,130.8,27.525l-2.217.539a140.928,140.928,0,0,1,17.871-11.751A117.106,117.106,0,0,1,208.334,1.559l.178.059,14.333,3.177.3.059.238.119,8.515,4.5-1.2-.238c2.879-.178,7.194-.6,10.014-.658,6.477-.119,23.388-.3,30.043-.361l-.42.059,31.9-8.154.42-.119.42.119c14.452,4.616,21.587,21.048,19.549,35.318a80.155,80.155,0,0,1,2.82,23.447l-.361-.48c3.3.781,6.536,4.137,5.457,7.674a3.019,3.019,0,0,1-2.518,2.217c-.06.059.119,0,.119-.059h0Z" transform="translate(-0.14)" fill="#fff"/><path d="M203.351,190.47a23.142,23.142,0,0,0,18.708,1.38,25.76,25.76,0,0,1-20.449,3l1.737-4.379h0Z" transform="translate(-116.047 -109.578)" fill="#fff"/><path d="M191.726,304.7l-13.79,14.512q-8.453,9.626-16.911,19.307l-7.016,10.252a4.6,4.6,0,0,0-2.756,1.019c-2.4,2.1-2.038,7.555,1.38,13.314L167.8,338.7c7.976-10.613,15.892-21.167,23.868-31.78l.06-2.217h0Z" transform="translate(-86.189 -175.295)" fill="#fff"/><path d="M267.642,214.33c.238,5.937.718,14.393.718,19.128,3.6,7.5,8.515,17.451,11.394,23.927,2.4,3,8.817,10.974,11.153,13.854-2.82-.9-8.515-2.7-11.335-3.6l1.8-2.879c1.44,1.5,9.534,9.772,10.8,11.034-1.559.658-5.037,2.157-6.6,2.82l-.48-3.657,14.69,1.979-2.217,1.8c.238-3.058.718-9.416,1.019-12.414l3.177,4.319c3.657,4.918,10.974,14.873,14.631,19.85l.361.42.059.539a32.289,32.289,0,0,0,1.44,7.5c.841,2.578,1.92,5.279,3.9,7.075a44.764,44.764,0,0,0,8.753,6.116c.9.539,1.86,1.019,2.756,1.678a2.73,2.73,0,0,1,1.2,1.559l-2.939.059,2.578-9.713,2.637-9.653.059.658a27.11,27.11,0,0,1,1.38-22.607,28.093,28.093,0,0,1,4.438-6.175c-6.234,7.857-7.976,19.069-3.657,28.242-1.138,5.1-3.3,14.873-4.438,19.91l-2.939.059c.119.3.119.238.119.238-1.979-1.321-4.255-2.217-6.3-3.538-3.657-2.217-7.5-4.977-9.356-8.876a35.161,35.161,0,0,1-3.419-12.291l.361,1.019c-3.657-4.918-11.093-14.813-14.75-19.787l3.6-1.019c-.119,1.559-.658,7.734-.781,9.173-.658-.119-15.531-2.217-16.729-2.4l-7.075-1.019c2.578-1.019,8.214-3.3,10.673-4.319l-.658,3.058c-3.058-3.236-10.554-11.271-13.492-14.452l6.655,2.281,6,2.1-1.86,2.578-7.318-9.836-.119-.178c-3.538-8.273-6.957-16.55-10.375-24.887l-.059-.178V233.7c-.06-6.417.238-12.894.539-19.37h0Z" transform="translate(-153.713 -123.305)" fill="#fff"/><path d="M309.484,240.874c2.4,6.175,5.636,15.353,7.317,20.508,2.34,3.6,4.918,7.615,7.194,11.271l-2.4-.6c2.7-1.678,6.417-4.077,9.114-5.7l1.618-.96,1.019,1.618c4.379,7.075,8.876,14.512,13.072,21.706l-3.419.3c1.92-4.977,4.617-11.632,6.655-16.491,4.077-2.7,8.154-5.338,12.354-7.976l-.3.361c1.8-3.478,3.6-6.957,5.517-10.435q-.987,2.79-1.979,5.576c-.658,1.92-1.38,3.78-2.1,5.7-1.92,1.559-3.839,3.058-5.818,4.616-1.86,1.5-3.716,2.939-5.636,4.379l.539-.658c-1.559,4.735-3.958,11.513-5.636,16.313l-1.321,3.716c-2.939-4.676-5.878-9.475-8.753-14.151-1.92-3.117-4.557-7.674-6.477-10.855l2.637.658q-2.338,1.35-4.676,2.7c-1.079.6-5.215,3-6.235,3.538-1.321-2.281-2.82-5.037-4.077-7.317-.96-1.86-2.459-4.319-3.359-6.175-1.737-7.194-3.538-14.571-4.859-21.647h0Z" transform="translate(-178.105 -138.573)" fill="#fff"/><path d="M630.169,130.184c-11.034-4.2-22.785-7.254-34.66-7.254a73.349,73.349,0,0,0-23.566,4.319l.718-.48c-5.156,5.457-10.074,11.093-14.813,16.971a133.883,133.883,0,0,0-22.3,39.1,194.2,194.2,0,0,0-6.715,21.409l-1.38,11.632-.119-.9c2.459,4.557,4.859,9.173,7.254,13.79,6.9,13.251,14.69,28.242,21.226,41.616l-1.019-.96c4.5,1.979,8.936,3.958,13.433,6,4.5,1.979,8.936,4.018,13.374,6.056l-.9-.119c7.734-1.019,15.892-2.1,23.685-3,1.92-.96,8.214-3.716,11.034-5.037l.178.361c-3.058,1.86-7.555,4.379-10.732,6.175-1.979.48-4.077.841-6.116,1.261-5.818,1.079-12.172,2.4-17.99,3.419-4.676-1.86-9.415-3.78-14.091-5.7-4.735-1.92-9.534-3.9-14.27-5.937l-.361-.658c-6.838-13.191-14.21-28.425-20.747-41.854-2.34-4.859-4.676-9.653-6.9-14.512l.059-.42,2.039-11.573c2.28-7.318,4.977-14.512,7.857-21.587,8.456-21.349,19.786-41.917,36.04-58.345a68.438,68.438,0,0,1,45.871-.06,87.519,87.519,0,0,1,14.032,5.878l-.119.42h0Z" transform="translate(-301.743 -69.02)" fill="#fff"/><path d="M530.046,26.854a6.227,6.227,0,0,1-6.957,4.676,5.317,5.317,0,0,1-2.939-1.261,11.115,11.115,0,0,1,2.34-1.8,11.811,11.811,0,0,1,7.555-1.618h0Z" transform="translate(-299.304 -15.4)" fill="#fff"/><path d="M696.6,424.424c-.059,3.839-.361,8.213,1.5,11.394,1.979,2.4,4.918,4.018,7.556,5.576.06.059.361.178.42.238v.06l-.658.178a42.883,42.883,0,0,1,4.676-2.34,48.405,48.405,0,0,1-3.657,4.137h-.42a15.622,15.622,0,0,1-3.3-.841c-2.756-1.079-5.576-2.637-7.317-5.156-2.4-4.077-1.321-9.594,1.2-13.25h0Z" transform="translate(-399.35 -244.171)" fill="#fff"/><path d="M626.645,278.186c-1.321,1.2-2.637,2.4-4.018,3.538l-.238.059c-4.978,1.44-9.955,2.756-14.992,4.018l-5.037,1.2-.3.06a66.127,66.127,0,0,1-13.913-3.657,63.745,63.745,0,0,1-13.013-6.778c-8.575-17.03-14.992-35.08-24.225-51.749l-.119-.238.06-.361c.3-2.518.718-5.937,1.019-8.4a169.694,169.694,0,0,1,34.719-69.2l.48-.6.6-.3a47.26,47.26,0,0,1,29.8-3.657,144.381,144.381,0,0,1,14.21,3.538c2.34.658,4.617,1.38,6.956,2.039,2.217.539,4.616,1.5,6.837,1.079l.238.539c-2.4.9-4.977.361-7.436.178-4.8-.6-9.535-1.44-14.334-2.1a91.776,91.776,0,0,0-13.972-1.138,46.527,46.527,0,0,0-19.549,5.215l1.079-.841a263.682,263.682,0,0,0-21.226,31.3,228.086,228.086,0,0,0-15.892,34.541c-.3,1.44-1.079,5.937-1.5,8.154l-.119-.6c4.018,8.515,8.4,16.788,13.132,24.947s9.534,16.249,13.79,24.645l-.96-1.079a74.018,74.018,0,0,0,11.395,6.116,78.9,78.9,0,0,0,12.355,4.2h-.841c4.918-.781,10.375-1.5,15.353-2.1,1.737-.178,3.419-.42,5.156-.6l-.3.119c1.5-.9,3-1.8,4.557-2.637l.238.539h0Z" transform="translate(-316.931 -81.2)" fill="#fff"/><path d="M564.189,129.05c-6.056,6.778-12.592,13.191-19.247,19.43l.3-.361c-1.2,2.578-2.459,5.156-3.78,7.674-3.839,7.615-7.857,15.23-12.414,22.488,2.939-8.035,6.417-15.892,10.133-23.626,1.2-2.578,2.459-5.156,3.716-7.674l.119-.238.178-.178a265.836,265.836,0,0,1,20.988-17.51h0Z" transform="translate(-304.424 -74.243)" fill="#fff"/><path d="M604.961,488.416a211.349,211.349,0,0,1-31.78-11.454c-3.478-4.918-6.778-9.9-9.9-14.992a163.891,163.891,0,0,1-8.4-15.23,182.453,182.453,0,0,1,16.669,19.969c1.677,2.34,3.419,4.676,5.037,7.016l-.96-.782c10.133,4.557,20.088,9.415,29.321,15.472h0Z" transform="translate(-319.29 -257.011)" fill="#fff"/><path d="M682.628,46.691a51.919,51.919,0,0,1-9.055,10.8c-2.82,2.4-5.517,5.517-9.475,6a9.048,9.048,0,0,1-4.2-.539,57.5,57.5,0,0,1-8.515-4.5c-2.637-1.618-9.356-5.7-11.874-7.254l-1.979-1.261c-6.655-4.077-9.653-12.172-10.014-19.128l-.059-.6c2.637-2.7,5.279-5.4,8.035-7.976.841-.841,1.737-1.678,2.637-2.459-1.38,1.979-2.756,3.958-4.2,5.937-1.44,1.92-2.879,3.9-4.319,5.818l.3-.9c1.019,5.7,3.419,11.335,7.917,14.992,1.079.781,2.459,1.559,3.78,2.34,4.018,2.34,8.035,4.8,11.934,7.318l3.9,2.459c2.34,1.38,4.616,3.058,7.377,2.518,2.518-.6,5.1-2.939,7.377-4.438A99.964,99.964,0,0,0,682.637,46.7h0Z" transform="translate(-361.04 -11.374)" fill="#fff"/><g transform="translate(175.69 22.32)"><path d="M413.958,74.543c-.361-1.559,5.517-2.1,10.8-7.976,1.86-2.1,3-4.018,6.235-6.778a23.175,23.175,0,0,1,3.9-2.756,23.782,23.782,0,0,1,7.734-2.637c7.976-1.138,10.133,3.716,15.353,1.678,3.236-1.261,4.077-3.538,7.194-3.419,2.039.059,4.438,1.138,4.8,2.756.48,2.217-3.117,5.576-6.476,5.818-1.979.119-3.236-.841-4.438,0-1.079.781-.9,2.1-1.38,3.419-1.5,4.2-8.753,5.279-12.291,5.818a36.488,36.488,0,0,1-10.252,0c-3.117-.42-3.3-.9-4.8-.658-4.255.6-4.918,4.5-9.233,5.818-3.177.9-6.838.059-7.135-1.079h0Z" transform="translate(-413.892 -52.61)" fill="#fff"/><path d="M413.826,74.489c-.06-.781.841-1.079,1.38-1.44l1.8-.96a24.944,24.944,0,0,0,6.655-4.735c1.92-1.92,3.359-4.319,5.338-6.235a33.156,33.156,0,0,1,3.117-2.7c4.379-3.359,10.193-5.215,15.65-4.137,2.7.48,5.1,2.217,7.857,2.157a8.511,8.511,0,0,0,3.839-1.2c1.2-.658,2.157-1.678,3.419-2.281,2.217-1.019,6.6-.119,7.194,2.518.178,3.359-4.557,6.3-7.615,6-1.261-.059-2.7-.781-3.657.238-.6.658-.539,1.92-.841,2.82a5.9,5.9,0,0,1-1.86,2.637c-3.359,2.637-7.734,3.177-11.815,3.716a35.637,35.637,0,0,1-12.354-.781,5.206,5.206,0,0,0-3.78.539c-2.34,1.321-3.9,3.958-6.6,4.8a10.621,10.621,0,0,1-6.116.238c-.6-.3-1.38-.539-1.618-1.2Zm.123-.059c1.079,1.92,5.878,1.559,7.615.781,2.7-.96,4.018-3.6,6.477-5.037a5.926,5.926,0,0,1,4.137-.718,37.347,37.347,0,0,0,12.112.658c4.438-.718,12.414-1.44,13.314-6.838.178-1.559,1.079-3.058,2.939-2.756a8.9,8.9,0,0,0,3.958.178,7.854,7.854,0,0,0,4.735-3.419c2.217-3.538-3.716-5.4-6.3-4.2-1.261.539-2.217,1.559-3.419,2.217a8.376,8.376,0,0,1-3.9,1.261c-2.82.119-5.215-1.618-7.916-2.039-5.338-.9-10.915,1.019-15.23,4.255-3.419,2.34-5.755,5.818-8.634,8.694a26.025,26.025,0,0,1-6.778,4.616l-1.86.9c-.48.48-1.321.781-1.261,1.44h0Z" transform="translate(-413.823 -52.556)" fill="#fff"/></g><path d="M454.279,74.881a19.405,19.405,0,0,1,9.9-5.4,19.827,19.827,0,0,1,12.711,1.678,10.087,10.087,0,0,0-3.359,1.38,11.325,11.325,0,0,0-1.979,1.678c-2.578,2.637-7.5,2.637-10.014,2.637a22.613,22.613,0,0,1-6.655-1.019l-.658-.6" transform="translate(-261.374 -39.741)" fill="#fff"/><path d="M630.424,165.708a39.087,39.087,0,0,1,9.9,17.629l-.06-.238c.361.9.782,1.8,1.139,2.7l-3.839-.658a35.981,35.981,0,0,0,7.734-20.029,27.682,27.682,0,0,0-1.019-7.317c-1.5-4.018-1.618-3.958,1.138-.6,6.536,9.416,2.756,22.607-4.256,30.7l-2.578,3c-.658-1.92-1.737-4.8-2.28-6.655a105.727,105.727,0,0,0-5.878-18.53Z" transform="translate(-362.743 -89.013)" fill="#fff"/><path d="M653.172,83.59l14.571,4.977L652.45,86.886Z" transform="translate(-375.417 -48.09)" fill="#fff"/><path d="M608.97,419.248c3.6-3.478,7.5-7.436,9.594-11.993,1.079-2.34,1.44-5.576,1.8-8.095l3.6,1.618a11.748,11.748,0,0,1,5.457,5.339,18.235,18.235,0,0,1,2.82,8.634c.059,4.676-1.92,11.692-6.417,13.913a7.784,7.784,0,0,1-4.319.539l-.06-.361a7.442,7.442,0,0,0,5.037-2.637,18.651,18.651,0,0,0,2.756-9.3,13.634,13.634,0,0,0-1.8-7.5c-1.2-2.281-2.459-4.676-4.918-5.818l.42-.238c-.96,5.517-4.918,9.9-9.233,13.191a33.355,33.355,0,0,1-4.616,2.879Z" transform="translate(-350.402 -229.638)" fill="#fff"/><path d="M725.17,150.65c4.858,4.018,8.214,7.734,9.594,14.151a39.873,39.873,0,0,1,.42,17.451l-2.879-2.157a11.221,11.221,0,0,0,1.138-.9c2.158-2.157,4.557-5.215,6.6-7.615,4.255-5.339,5.338-12.414,4.557-19.128a24.4,24.4,0,0,1-2.217,20.687,60.431,60.431,0,0,1-4.616,7.135,13.458,13.458,0,0,1-3.538,3.359l-3.716,1.979.841-4.137a43.507,43.507,0,0,0-.781-19.85c-1.019-3.958-3.538-7.318-5.4-10.974Z" transform="translate(-417.253 -86.67)" fill="#fff"/><path d="M672.784,53.267a53.255,53.255,0,0,1,12.652-4.977c4.676.539,8.575,5.457,7.194,10.074a12.328,12.328,0,0,0-3.117-4.557,9.474,9.474,0,0,0-4.319-2.157h.718a53.24,53.24,0,0,1-13.132,1.618h0Z" transform="translate(-387.113 -27.781)" fill="#fff"/><path d="M454.36,98.088a30.631,30.631,0,0,0,22.008-.238,23.778,23.778,0,0,1-22.008.238Z" transform="translate(-261.455 -56.294)" fill="#fff"/><path d="M628.668,154.229c-3.3-.658-6.116-1.019-8.273-1.261a54.9,54.9,0,0,0-7.437-.48,33.718,33.718,0,0,0-4.977.48,41.062,41.062,0,0,0-6.956,1.678,55.6,55.6,0,0,1,2.518,5.037,18.62,18.62,0,0,1,1.677,4.676c.238,1.559,0,2.879-.421,5.457a33.8,33.8,0,0,1-.96,4.438A27.1,27.1,0,0,1,600,182.947c-.361.539-1.321,1.737-3.236,4.137-.718.841-1.261,1.559-1.618,2.039q-.631-2.427-1.618-6.116c-.3-1.2-.781-2.7-1.618-5.636-1.5-5.1-1.678-5.7-1.979-6.536-.841-2.217-1.677-3.958-2.28-5.215a87.733,87.733,0,0,0-5.636,7.436q-.3.48-.6.9c-2.1,3.117-3.117,4.137-5.878,7.734s-3.117,4.438-3.359,4.977c-.3.658-.658,1.678-1.38,3.3-.539,1.261-1.019,2.157-1.2,2.578-2.637,5.215-4.8,9.475-6.6,13.433-2.039,4.616-3.359,8.214-3.9,9.772-.96,2.756-1.678,5.215-2.158,7.135a20.561,20.561,0,0,0-1.38,3.657,19,19,0,0,0-.539,4.077c1.261,3.058,3.3,7.555,6.116,12.834,1.5,2.756,2.82,5.037,3.78,6.714.781,1.261,1.321,2.217,1.44,2.4,4.616,7.377,7.254,23.205,12.172,23.8,3.236.361,6.714-6.175,8.273-9.114a28.726,28.726,0,0,0,2.879-8.456c-.178-.178-.361-.42-.238-.6.238-.42,2.34.178,4.018,1.079a11.248,11.248,0,0,1,3.657,3.359,15.2,15.2,0,0,1,1.919,3.419,22.5,22.5,0,0,1,.96,3.117,18.656,18.656,0,0,1,.6,3.6,18.189,18.189,0,0,1-.48,4.379c-.238,1.38-.48,2.518-.658,3.3-1.559,2.1-3.117,4.2-4.676,6.358,3.419,1.019,6.838,2.039,10.193,3.058l18.891-3.058c-.48-.178-1.2-.539-2.039-.96a20.335,20.335,0,0,1-5.156-3.359,6.731,6.731,0,0,1-1.92-2.459,7.366,7.366,0,0,1-.421-3,42.494,42.494,0,0,1,.421-5.457c-.238-.3-2.756-3.117-3-3.419-2.939-3.419-5.937-6.778-8.876-10.193-1.92-5.215-3.839-10.375-5.755-15.591-1.019-5.7-2.038-11.335-3.058-17.03-.119-2.217-.3-4.438-.421-6.655,1.979-3.478,3.716-6.116,4.918-7.916,2.217-3.177,4.378-6,5.754-9.055a40.3,40.3,0,0,0,1.8-4.379,8.122,8.122,0,0,1,.718-2.1c.059-.059.059-.119.119-.178,8.337-8.273,11.573-11.395,11.875-11.632h0c1.559-1.2,3.839-2.82,6.655-4.616a39.189,39.189,0,0,1,6.175-3.538c.9-.42,1.737-.718,2.578-1.019a27.456,27.456,0,0,0-1.2-11.934,29.1,29.1,0,0,0-4.379-8.095Z" transform="translate(-319.371 -87.725)" fill="#fff"/></g></g></svg>