<?xml version="1.0" encoding="UTF-8"?>
<svg id="Layer_2" data-name="Layer 2" xmlns="http://www.w3.org/2000/svg" viewBox="0 0 61.87 63.58">
  <g id="Layer_1-2" data-name="Layer 1">
    <path d="M61.87,63.54c-6.03,0-11.67.04-17.31-.06-.58,0-1.31-.67-1.7-1.22-5.12-7.36-10.18-14.76-15.26-22.14-.31-.45-.63-.88-1.05-1.46-2.57,2.97-5.06,5.85-7.54,8.74-4.31,5.02-8.59,10.08-12.96,15.04-.52.59-1.52.91-2.36,1.04-1.05.18-2.16.04-3.69.04,8.24-9.6,16.23-18.91,24.26-28.27C16.23,23.59,8.24,11.98.12.18.73.12,1.13.05,1.53.05,6.68.04,11.83,0,16.97.08c.66.01,1.55.5,1.94,1.05,4.8,6.85,9.53,13.75,14.28,20.64.37.53.75,1.05,1.21,1.7,2.89-3.35,5.67-6.57,8.45-9.8,3.64-4.23,7.25-8.49,10.93-12.68.43-.49,1.24-.82,1.92-.91,1.18-.15,2.39-.04,3.97-.04-1.21,1.45-2.22,2.69-3.26,3.9-6.28,7.3-12.55,14.6-18.87,21.87-.73.83-.65,1.34-.04,2.22,7.72,11.15,15.39,22.33,23.07,33.5.39.57.76,1.16,1.32,2.01ZM7.71,4.06c12.7,18.45,25.15,36.55,37.62,54.65.23.33.63.77.96.78,2.53.06,5.06.04,7.88.04-.52-.81-.83-1.31-1.16-1.79-3.97-5.76-7.94-11.52-11.91-17.29-8.06-11.71-16.1-23.43-24.17-35.12-.34-.5-.89-1.18-1.38-1.2-2.49-.12-4.99-.06-7.84-.06Z" style="fill: #fff; stroke-width: 0px;"/>
  </g>
</svg>