<svg xmlns="http://www.w3.org/2000/svg" xmlns:xlink="http://www.w3.org/1999/xlink" width="105.692" height="37.695" viewBox="0 0 105.692 37.695">
  <defs>
    <clipPath id="clip-path">
      <rect id="Rectangle_85" data-name="Rectangle 85" width="105.692" height="37.695" transform="translate(0 0)" fill="#fff"/>
    </clipPath>
  </defs>
  <g id="Group_95" data-name="Group 95" transform="translate(0 0)">
    <g id="Group_69" data-name="Group 69" clip-path="url(#clip-path)">
      <path id="Path_95" data-name="Path 95" d="M52.638,37.695c-.321-1.258-.619-2.3-.853-3.365-1.5-6.794-5.77-10.872-12.5-12.061C33.573,21.261,27.791,20.536,22.01,20.1c-6.307-.478-12.65-.473-18.976-.7A12.74,12.74,0,0,1,0,18.908c6.122-.221,12.253-.3,18.363-.7q9.241-.614,18.444-1.775c8.324-1.052,13.839-5.38,15.343-14.009.109-.625.327-1.23.651-2.42a22.153,22.153,0,0,1,.682,2.277c1.434,8.77,7.018,13.291,15.434,14.128,10.677,1.062,21.409,1.576,32.12,2.292a23.061,23.061,0,0,1,4.655.438c-1.339.1-2.678.208-4.018.29-10.2.626-20.407,1.235-30.608,1.885a28.6,28.6,0,0,0-3.482.567C59.945,23.329,54.948,27.5,53.6,35.449a15.325,15.325,0,0,1-.551,1.9c-.015.052-.094.084-.414.347" fill="#fff"/>
    </g>
  </g>
</svg>
